<?xml version="1.0" encoding="UTF-8"?>
<!-- Generator: Adobe Illustrator 21.0.0, SVG Export Plug-In . SVG Version: 6.00 Build 0)  -->
<svg version="1.1" id="1_1" xmlns="http://www.w3.org/2000/svg" xmlns:xlink="http://www.w3.org/1999/xlink" x="0px" y="0px"
	 viewBox="0 0 762.5 435" style="enable-background:new 0 0 762.5 435;" xml:space="preserve">
<style type="text/css">
	.st0{fill:#007F7B;}
	.st1{fill:#D69200;}
</style>
<g>
	<polygon class="st0" points="609.4,166.9 609.4,222.2 569.9,166.9 569.9,166.9 543.2,166.9 543.2,268.3 569.9,268.3 569.9,212.9
		609.4,268.3 636.1,268.3 636.1,166.9 	"/>
	<polygon class="st0" points="501.5,166.9 501.5,222.2 462,166.9 462,166.9 435.3,166.9 435.3,268.3 462,268.3 462,212.9
		501.5,268.3 528.2,268.3 528.2,166.9 	"/>
	<g>
		<rect x="298.4" y="166.7" class="st1" width="76.5" height="25.9"/>
		<polygon class="st1" points="298.4,268.3 374.8,268.3 374.8,242.4 324.3,242.4 324.3,231.8 374.8,231.8 374.8,205.9 298.4,205.9
					"/>
	</g>
	<polygon class="st1" points="182.8,268.3 139.7,166.9 139.7,166.9 113,166.9 112.9,166.9 69.9,268.3 96.6,268.3 126.3,198.3
		156,268.3 	"/>
	<polygon class="st0" points="757.4,268.3 714.4,166.9 714.3,166.9 687.6,166.9 687.5,166.9 644.5,268.3 671.3,268.3 701,198.3
		730.7,268.3 	"/>
	<rect x="390.4" y="166.9" class="st0" width="26.7" height="101.4"/>
	<g>
		<path class="st1" d="M233.2,245.5c-15.4,0-28-12.5-28-28c0-15.4,12.5-28,28-28c11.1,0,20.7,6.5,25.2,15.9h25.8
			c-5.4-23.2-26.2-40.4-51-40.4c-29,0-52.4,23.5-52.4,52.4c0,29,23.5,52.4,52.4,52.4c24.8,0,45.6-17.2,51-40.4h-25.8
			C253.9,238.9,244.3,245.5,233.2,245.5z"/>
	</g>
	<g>
		<path class="st0" d="M217.6,401.3c-101.5,0-183.8-82.3-183.8-183.8S116.1,33.7,217.6,33.7c74.9,0,139.3,44.8,167.9,109.1h31.9
			C387.3,61.8,309.2,4.2,217.6,4.2C99.8,4.2,4.3,99.7,4.3,217.5c0,117.8,95.5,213.3,213.3,213.3c91.6,0,169.6-57.7,199.9-138.7
			h-31.9C357,356.4,292.5,401.3,217.6,401.3z"/>
	</g>
</g>
</svg>
